<svg xmlns="http://www.w3.org/2000/svg" viewBox="0 0 1080 1080">
  <defs>
    <style>
      .a {
        fill: #020c14;
      }
    </style>
  </defs>
  <g>
    <g>
      <path class="a" d="M833.7,935V837.5c-12.9,19.9-41.3,25.9-60.5,25.9-58.3,0-91.9-42.1-91.9-95.3s37.3-95.2,93.4-95.2c20.6,0,45,8.9,59,29.2l3-25.1h42.1V935Zm-4-166.9c0-28.4-19.2-51.6-51.7-51.6s-51.7,23.2-51.7,51.6,21.1,51.7,51.7,51.7S829.7,796.6,829.7,768.1Z"/>
      <g>
        <path class="a" d="M155.7,725.3c-12.9-12.2-27.7-16.2-45-16.2-21.4,0-33.2,6.6-33.2,18.1s10.7,18.4,33.9,19.9c34.4,2.2,77.9,10,77.9,58.3,0,32.1-26.2,59.8-78.2,59.8-28.8,0-57.6-4.8-84.2-32.5l22.2-32.1C62,815,91.5,825.7,111.8,826.1c17,.3,32.8-8.5,32.8-21.8s-10.3-17.7-36.1-19.2c-34.4-2.6-75.3-15.1-75.3-56.5s43.5-56.8,76.8-56.8c28.4,0,49.8,5.5,70.8,24Z"/>
        <path class="a" d="M277.9,625.7v51.6h50.2v38.8H277.5v78.6c0,17.4,9.6,25.8,23.6,25.8a51.3,51.3,0,0,0,21.8-5.5l12.6,38.4a99.2,99.2,0,0,1-37.3,7.7c-39.5,1.5-65.3-21-65.3-66.4V716.1h-34V677.3h34V630.5Z"/>
        <path class="a" d="M399.7,677l3.3,21c14-22.5,32.9-25.8,51.3-25.8s36.9,7.4,46.9,17.3l-20.3,39.1c-9.2-7.7-17.7-11.8-32.5-11.8-23.6,0-45.4,12.6-45.4,46.2v95.9H358V677Z"/>
      </g>
      <path class="a" d="M586.8,705.4c-21.3,0-37,9.8-46.4,29.7l-31.7-18.2c14.6-31.7,41.1-47.4,79.2-47.4,34.8,0,58.2,12.6,69.7,38,4.2,9.4,6.3,20.6,6.3,33.5V859.6H623.1V834.2c-11.5,19.1-29.7,28.6-54.8,28.6-18.1,0-33.1-5.3-45-15.4S505.5,824,505.5,808v-2.1c0-43.3,44.7-56.9,77.5-56.9h23c11.5,0,17.4-5.2,17.4-15.7C623.4,718,610.2,705.4,586.8,705.4Zm36.3,72.9H583a49,49,0,0,0-24.8,7c-7.3,4.6-11.2,10.8-11.2,18.9,0,15.3,11.9,25.4,29.7,25.4,28.3,0,46.4-17.4,46.4-45.3Z"/>
      <path class="a" d="M976,705.4c-21.3,0-37,9.8-46.4,29.7l-31.7-18.2c14.6-31.7,41.1-47.4,79.1-47.4,34.9,0,58.3,12.6,69.8,38,4.2,9.4,6.3,20.6,6.3,33.5V859.6h-40.8V834.2c-11.5,19.1-29.7,28.6-54.8,28.6-18.1,0-33.1-5.3-45-15.4S894.7,824,894.7,808v-2.1c0-43.3,44.7-56.9,77.5-56.9h23c11.5,0,17.4-5.2,17.4-15.7C1012.6,718,999.4,705.4,976,705.4Zm36.3,72.9H972.2a48.7,48.7,0,0,0-24.8,7c-7.3,4.6-11.2,10.8-11.2,18.9,0,15.3,11.9,25.4,29.7,25.4,28.2,0,46.4-17.4,46.4-45.3Z"/>
    </g>
    <g>
      <circle class="a" cx="540" cy="354.7" r="61.1"/>
      <path class="a" d="M540,267.1a87.6,87.6,0,1,1-87.6,87.6A87.6,87.6,0,0,1,540,267.1m0-20.6a108.2,108.2,0,1,0,76.5,31.7A107.6,107.6,0,0,0,540,246.5Z"/>
      <path class="a" d="M540,225.1A129.6,129.6,0,1,1,410.4,354.7,129.6,129.6,0,0,1,540,225.1m0-16.4a145,145,0,0,0-103.2,42.7,145.9,145.9,0,0,0,0,206.5,145.8,145.8,0,0,0,206.4,0,145.9,145.9,0,0,0,0-206.5A145,145,0,0,0,540,208.7Z"/>
      <path class="a" d="M540,188.9A165.8,165.8,0,0,1,705.8,354.7c0,91.5-74.3,165.7-165.8,165.7S374.2,446.2,374.2,354.7A165.8,165.8,0,0,1,540,188.9m0-12.3a177.8,177.8,0,1,0,69.3,14,176.6,176.6,0,0,0-69.3-14Z"/>
      <path class="a" d="M540,158.5A196.1,196.1,0,0,1,736.2,354.7c0,108.3-87.8,196.2-196.2,196.2S343.8,463,343.8,354.7A196.1,196.1,0,0,1,540,158.5m0-8.3a204.2,204.2,0,1,0,79.6,16.1A204.4,204.4,0,0,0,540,150.2Z"/>
      <path class="a" d="M540,132.1c122.9,0,222.6,99.7,222.6,222.6S662.9,577.2,540,577.2,317.4,477.6,317.4,354.7,417.1,132.1,540,132.1m0-4.1a226,226,0,0,0-160.3,66.4,225.5,225.5,0,0,0-66.4,160.3,225.3,225.3,0,0,0,17.8,88.2A228.7,228.7,0,0,0,379.7,515a226.8,226.8,0,0,0,320.6,0,228.7,228.7,0,0,0,48.6-72.1,227.7,227.7,0,0,0,0-176.5,228.3,228.3,0,0,0-48.6-72A226,226,0,0,0,540,128Z"/>
    </g>
  </g>
</svg>
