<svg xmlns="http://www.w3.org/2000/svg" viewBox="0 0 3424 1039">
  <defs>
    <style>
      .a {
        fill: #020c14;
      }
    </style>
  </defs>
  <g>
    <g>
      <path class="a" d="M2863,917.3V689.9c-30.2,46.5-96.5,60.3-141.3,60.3-136.1,0-214.5-98.2-214.5-222.2s87-222.3,217.9-222.3c48.3,0,105.1,20.7,137.9,68l6.9-58.5h98.2V917.3ZM2853.5,528c0-66.4-44.8-120.7-120.6-120.7S2612.3,461.6,2612.3,528s49.1,120.6,120.6,120.6S2853.5,594.3,2853.5,528Z"/>
      <g>
        <path class="a" d="M1280.4,428c-30.1-28.4-64.6-37.9-105.1-37.9-50,0-77.5,15.5-77.5,42.2s25,43.1,79.2,46.5c80.1,5.2,181.8,23.3,181.8,136.2,0,74.9-61.2,139.5-182.6,139.5-67.2,0-134.4-11.2-196.5-75.8l51.7-74.9c30.2,33.6,99.1,58.5,146.5,59.4,39.6.9,76.7-19.8,76.7-50.8,0-29.3-24.2-41.4-84.5-44.8-80.1-6-175.7-35.3-175.7-131.8,0-98.2,101.6-132.7,179.2-132.7,66.3,0,116.3,12.9,165.4,56Z"/>
        <path class="a" d="M1565.6,195.4V316h117.1v90.5h-118V590c0,40.5,22.4,60.3,55.1,60.3,16.4,0,35.4-5.2,50.9-12.9L1700,727c-30.2,12-55.2,17.2-87,18-92.2,3.5-152.5-49.1-152.5-155V406.5h-79.3V316h79.3V206.6Z"/>
        <path class="a" d="M1849.9,315.2l7.7,49.1c32.8-52.6,76.7-60.3,119.8-60.3s86.1,17.2,109.4,40.5l-47.4,91.3c-21.5-18.1-41.4-27.6-75.8-27.6-55.2,0-106,29.3-106,107.7v224H1752.5V315.2Z"/>
      </g>
      <path class="a" d="M2286.6,381.6c-49.6,0-86.3,22.8-108.3,69.2l-74.1-42.3c34.2-74.1,96.1-110.8,184.9-110.8,81.4,0,136,29.4,162.8,88.8,9.8,22,14.7,48,14.7,78.2V741.5h-95.3V682.1c-26.8,44.7-69.2,66.7-127.8,66.7-42.4,0-77.4-12.2-105.1-35.8s-41.5-54.5-41.5-92v-4.9c0-101,104.2-132.7,180.8-132.7h53.7c26.9,0,40.7-12.2,40.7-36.7C2372.1,410.9,2341.2,381.6,2286.6,381.6Zm84.7,170.2h-93.6c-20.4,0-39.9,5.7-57.8,16.3s-26.1,25.2-26.1,43.9c0,35.9,27.7,59.5,69.2,59.5,66,0,108.3-40.7,108.3-105.9Z"/>
      <path class="a" d="M3195.1,381.6c-49.7,0-86.4,22.8-108.3,69.2l-74.1-42.3c34.2-74.1,96-110.8,184.8-110.8,81.4,0,136,29.4,162.8,88.8,9.8,22,14.7,48,14.7,78.2V741.5h-95.3V682.1c-26.8,44.7-69.2,66.7-127.8,66.7-42.3,0-77.4-12.2-105-35.8s-41.6-54.5-41.6-92v-4.9c0-101,104.3-132.7,180.8-132.7h53.7c26.9,0,40.7-12.2,40.7-36.7C3280.5,410.9,3249.6,381.6,3195.1,381.6Zm84.6,170.2h-93.6c-20.4,0-39.9,5.7-57.8,16.3s-26.1,25.2-26.1,43.9c0,35.9,27.7,59.5,69.2,59.5,66,0,108.3-40.7,108.3-105.9Z"/>
    </g>
    <g>
      <circle class="a" cx="473.7" cy="554.8" r="112.8"/>
      <path class="a" d="M473.7,392.9A161.9,161.9,0,0,1,635.6,554.8c0,89.3-72.5,161.8-161.9,161.8S311.9,644.1,311.9,554.8s72.5-161.9,161.8-161.9m0-38A200.1,200.1,0,1,0,615,413.5a198.2,198.2,0,0,0-141.3-58.6Z"/>
      <path class="a" d="M473.7,315.4c132.2,0,239.4,107.2,239.4,239.4S605.9,794.1,473.7,794.1,234.4,686.9,234.4,554.8,341.6,315.4,473.7,315.4m0-30.4a268.8,268.8,0,1,0,105.1,21.2A269.5,269.5,0,0,0,473.7,285Z"/>
      <path class="a" d="M473.7,248.6c169.2,0,306.3,137,306.3,306.2S642.9,861,473.7,861,167.5,723.9,167.5,554.8,304.6,248.6,473.7,248.6m0-22.8a327.8,327.8,0,1,0,128.1,25.8,327.8,327.8,0,0,0-128.1-25.8Z"/>
      <path class="a" d="M473.7,192.3c200.2,0,362.5,162.3,362.5,362.5S673.9,917.2,473.7,917.2,111.3,754.9,111.3,554.8,273.6,192.3,473.7,192.3m0-15.2a376.6,376.6,0,1,0,147.1,29.7,375.6,375.6,0,0,0-147.1-29.7Z"/>
      <path class="a" d="M473.7,143.6c227.1,0,411.2,184.1,411.2,411.2S700.8,965.9,473.7,965.9,62.6,781.8,62.6,554.8,246.7,143.6,473.7,143.6m0-7.6a417.1,417.1,0,1,0,163,32.9,416.3,416.3,0,0,0-163-32.9Z"/>
    </g>
  </g>
</svg>
