<svg xmlns="http://www.w3.org/2000/svg" viewBox="0 0 1080 1080">
  <defs>
    <style>
      .a {
        fill: #fff;
      }
    </style>
  </defs>
  <g>
    <circle class="a" cx="540" cy="540" r="128.3"/>
    <path class="a" d="M540,356.1A183.9,183.9,0,1,1,356.1,540,183.9,183.9,0,0,1,540,356.1m0-43.2a227,227,0,1,0,160.6,66.5A225.6,225.6,0,0,0,540,312.9Z"/>
    <path class="a" d="M540,267.9c150.3,0,272.1,121.8,272.1,272.1S690.3,812.1,540,812.1,267.9,690.3,267.9,540,389.7,267.9,540,267.9m0-34.5a305.4,305.4,0,1,0,119.4,24.1A305.1,305.1,0,0,0,540,233.4Z"/>
    <path class="a" d="M540,191.9c192.2,0,348.1,155.9,348.1,348.1S732.2,888.1,540,888.1,191.9,732.2,191.9,540,347.8,191.9,540,191.9m0-25.9a373.2,373.2,0,1,0,145.6,29.4A371.7,371.7,0,0,0,540,166Z"/>
    <path class="a" d="M540,128c227.5,0,412,184.5,412,412S767.5,952,540,952,128,767.5,128,540,312.5,128,540,128m0-17.3A429.3,429.3,0,0,0,372.9,935.5a429.4,429.4,0,1,0,334.2-791A426.5,426.5,0,0,0,540,110.7Z"/>
    <path class="a" d="M540,72.6c258.1,0,467.4,209.3,467.4,467.4S798.1,1007.4,540,1007.4,72.6,798.1,72.6,540,281.9,72.6,540,72.6m0-8.6a474.5,474.5,0,1,0,185.3,37.4A473.4,473.4,0,0,0,540,64Z"/>
  </g>
</svg>
